<svg width="1275" height="75" viewBox="0 0 1275 75" fill="none" xmlns="http://www.w3.org/2000/svg">
<path d="M0 75V30H15V60H67.5C69.5312 60 71.2891 59.2969 72.7734 57.8906C74.2578 56.4062 75 54.6094 75 52.5V15H15C10.7812 15 7.22656 13.5547 4.33594 10.6641C1.44531 7.69531 0 4.14063 0 0H90V60C90 64.2188 88.5156 67.7734 85.5469 70.6641C82.5781 73.5547 79.0625 75 75 75H0ZM105 75V0H120V75H105ZM150 75C145.781 75 142.227 73.5547 139.336 70.6641C136.445 67.6953 135 64.1406 135 60V30H150V52.5C150 54.6094 150.703 56.4062 152.109 57.8906C153.594 59.2969 155.391 60 157.5 60H210V45H180C175.781 45 172.227 43.5547 169.336 40.6641C166.445 37.6953 165 34.1406 165 30H225V75H150ZM135 15V0H225C225 4.21875 223.516 7.77344 220.547 10.6641C217.578 13.5547 214.062 15 210 15H135ZM240 75V0H255V75H240ZM307.5 75V15H285C280.781 15 277.227 13.5547 274.336 10.6641C271.445 7.69531 270 4.14063 270 0H360C360 4.21875 358.516 7.77344 355.547 10.6641C352.578 13.5547 349.062 15 345 15H322.5V75H307.5ZM375 75V30H465V75H450V45H390V75H375ZM390 15C385.781 15 382.227 13.5547 379.336 10.6641C376.445 7.69531 375 4.14063 375 0H465C465 4.21875 463.516 7.77344 460.547 10.6641C457.578 13.5547 454.062 15 450 15H390ZM480 75V0H495V60H570C570 64.2188 568.516 67.7734 565.547 70.6641C562.578 73.5547 559.062 75 555 75H480ZM630 75V30H697.5C699.531 30 701.289 29.2969 702.773 27.8906C704.258 26.4062 705 24.6094 705 22.5V15H630V0H720V30C720 34.2188 718.516 37.7734 715.547 40.6641C712.578 43.5547 709.062 45 705 45H645V75H630ZM735 75V30H802.5C804.531 30 806.289 29.2969 807.773 27.8906C809.258 26.4062 810 24.6094 810 22.5V15H750C745.781 15 742.227 13.5547 739.336 10.6641C736.445 7.69531 735 4.14063 735 0H825V30C825 34.2188 823.516 37.7734 820.547 40.6641C817.578 43.5547 814.062 45 810 45H795L825 75H802.5L772.5 45H750V75H735ZM840 75V30H855V60H915V30H930V75H840ZM855 15C850.781 15 847.227 13.5547 844.336 10.6641C841.445 7.69531 840 4.14063 840 0H930C930 4.21875 928.516 7.77344 925.547 10.6641C922.578 13.5547 919.062 15 915 15H855ZM982.5 75V15H960C955.781 15 952.227 13.5547 949.336 10.6641C946.445 7.69531 945 4.14063 945 0H1035C1035 4.21875 1033.52 7.77344 1030.55 10.6641C1027.58 13.5547 1024.06 15 1020 15H997.5V75H982.5ZM1065 75C1060.78 75 1057.23 73.5547 1054.34 70.6641C1051.45 67.6953 1050 64.1406 1050 60H1140C1140 64.2188 1138.52 67.7734 1135.55 70.6641C1132.58 73.5547 1129.06 75 1125 75H1065ZM1065 45C1060.78 45 1057.23 43.5547 1054.34 40.6641C1051.45 37.6953 1050 34.1406 1050 30H1140C1140 34.2188 1138.52 37.7734 1135.55 40.6641C1132.58 43.5547 1129.06 45 1125 45H1065ZM1065 15C1060.78 15 1057.23 13.5547 1054.34 10.6641C1051.45 7.69531 1050 4.14063 1050 0H1140C1140 4.21875 1138.52 7.77344 1135.55 10.6641C1132.58 13.5547 1129.06 15 1125 15H1065ZM1155 75V0H1170V75H1155ZM1200 75V15L1185 0H1207.5L1260 52.5V0H1275V75H1260L1215 30V75H1200Z" fill="white"/>
</svg>
